<svg width="30" height="26" viewBox="0 0 30 26" fill="none" xmlns="http://www.w3.org/2000/svg">
<path d="M18.6619 4.4881C18.9741 5.81138 20.1623 6.79716 21.5812 6.79716C23.2378 6.79716 24.5808 5.45419 24.5808 3.79763C24.5808 2.14106 23.2378 0.798096 21.5812 0.798096C20.1328 0.798096 18.9248 1.82466 18.6436 3.19013C16.2178 3.45028 14.3236 5.50763 14.3236 8.00091C14.3236 8.00653 14.3236 8.01075 14.3236 8.01638C11.6855 8.12747 9.27655 8.87841 7.36405 10.0639C6.6539 9.51403 5.76233 9.18638 4.79483 9.18638C2.47312 9.18638 0.591553 11.0679 0.591553 13.3897C0.591553 15.0743 1.58155 16.5256 3.01171 17.1964C3.15093 22.0761 8.46796 26.0009 15.0084 26.0009C21.5489 26.0009 26.873 22.0718 27.0051 17.1879C28.4241 16.5129 29.4056 15.0659 29.4056 13.3911C29.4056 11.0693 27.5241 9.18778 25.2023 9.18778C24.2391 9.18778 23.3517 9.51263 22.643 10.0583C20.7136 8.86435 18.278 8.11341 15.6131 8.01357C15.6131 8.00935 15.6131 8.00653 15.6131 8.00232C15.6131 6.21638 16.9406 4.73419 18.6619 4.49091V4.4881ZM7.1953 16.0573C7.26562 14.5329 8.27812 13.3629 9.45515 13.3629C10.6322 13.3629 11.5322 14.599 11.4619 16.1234C11.3916 17.6478 10.5126 18.2018 9.33421 18.2018C8.15577 18.2018 7.12499 17.5817 7.1953 16.0573ZM20.5631 13.3629C21.7416 13.3629 22.7541 14.5329 22.823 16.0573C22.8933 17.5817 21.8611 18.2018 20.6841 18.2018C19.507 18.2018 18.6267 17.6492 18.5564 16.1234C18.4861 14.599 19.3847 13.3629 20.5631 13.3629ZM19.1625 19.5842C19.3833 19.6067 19.5239 19.8359 19.4381 20.0412C18.7139 21.7723 17.0039 22.9887 15.0084 22.9887C13.013 22.9887 11.3044 21.7723 10.5787 20.0412C10.493 19.8359 10.6336 19.6067 10.8544 19.5842C12.1481 19.4534 13.5473 19.3817 15.0084 19.3817C16.4695 19.3817 17.8673 19.4534 19.1625 19.5842Z" fill="white"/>
</svg>
